<?xml version="1.0" encoding="UTF-8"?>
<svg width="611px" height="699px" viewBox="0 0 611 699" version="1.1" xmlns="http://www.w3.org/2000/svg" xmlns:xlink="http://www.w3.org/1999/xlink">
    <!-- Generator: Sketch 49.3 (51167) - http://www.bohemiancoding.com/sketch -->
    <title>undraw_mission_impossible_bwa2 (1)</title>
    <desc>Created with Sketch.</desc>
    <defs>
        <linearGradient x1="50%" y1="100%" x2="50%" y2="0%" id="linearGradient-1">
            <stop stop-color="#808080" stop-opacity="0.25" offset="0%"></stop>
            <stop stop-color="#808080" stop-opacity="0.12" offset="54%"></stop>
            <stop stop-color="#808080" stop-opacity="0.1" offset="100%"></stop>
        </linearGradient>
        <linearGradient x1="14190.21%" y1="39204%" x2="14190.7178%" y2="25194%" id="linearGradient-2">
            <stop stop-color="#808080" stop-opacity="0.25" offset="0%"></stop>
            <stop stop-color="#808080" stop-opacity="0.12" offset="54%"></stop>
            <stop stop-color="#808080" stop-opacity="0.1" offset="100%"></stop>
        </linearGradient>
        <rect id="path-3" x="0" y="0" width="270" height="135"></rect>
        <linearGradient x1="1384%" y1="24499%" x2="1384%" y2="20299%" id="linearGradient-5">
            <stop stop-color="#808080" stop-opacity="0.25" offset="0%"></stop>
            <stop stop-color="#808080" stop-opacity="0.12" offset="54%"></stop>
            <stop stop-color="#808080" stop-opacity="0.1" offset="100%"></stop>
        </linearGradient>
        <linearGradient x1="48749%" y1="43013%" x2="48749%" y2="12199%" id="linearGradient-6">
            <stop stop-color="#808080" stop-opacity="0.25" offset="0%"></stop>
            <stop stop-color="#808080" stop-opacity="0.12" offset="54%"></stop>
            <stop stop-color="#808080" stop-opacity="0.1" offset="100%"></stop>
        </linearGradient>
        <linearGradient x1="53091%" y1="30307%" x2="53091%" y2="25500%" id="linearGradient-7">
            <stop stop-color="#808080" stop-opacity="0.25" offset="0%"></stop>
            <stop stop-color="#808080" stop-opacity="0.12" offset="54%"></stop>
            <stop stop-color="#808080" stop-opacity="0.1" offset="100%"></stop>
        </linearGradient>
        <linearGradient x1="57350%" y1="32454%" x2="57350%" y2="25400%" id="linearGradient-8">
            <stop stop-color="#808080" stop-opacity="0.25" offset="0%"></stop>
            <stop stop-color="#808080" stop-opacity="0.12" offset="54%"></stop>
            <stop stop-color="#808080" stop-opacity="0.1" offset="100%"></stop>
        </linearGradient>
        <linearGradient x1="46602%" y1="54300%" x2="46602%" y2="52700%" id="linearGradient-9">
            <stop stop-color="#808080" stop-opacity="0.25" offset="0%"></stop>
            <stop stop-color="#808080" stop-opacity="0.12" offset="54%"></stop>
            <stop stop-color="#808080" stop-opacity="0.1" offset="100%"></stop>
        </linearGradient>
        <linearGradient x1="54427%" y1="65960%" x2="54427%" y2="46387%" id="linearGradient-10">
            <stop stop-color="#808080" stop-opacity="0.25" offset="0%"></stop>
            <stop stop-color="#808080" stop-opacity="0.12" offset="54%"></stop>
            <stop stop-color="#808080" stop-opacity="0.1" offset="100%"></stop>
        </linearGradient>
        <linearGradient x1="48102%" y1="53300%" x2="48102%" y2="40800%" id="linearGradient-11">
            <stop stop-color="#808080" stop-opacity="0.25" offset="0%"></stop>
            <stop stop-color="#808080" stop-opacity="0.12" offset="54%"></stop>
            <stop stop-color="#808080" stop-opacity="0.1" offset="100%"></stop>
        </linearGradient>
        <linearGradient x1="34302%" y1="70400%" x2="34302%" y2="54000%" id="linearGradient-12">
            <stop stop-color="#808080" stop-opacity="0.25" offset="0%"></stop>
            <stop stop-color="#808080" stop-opacity="0.12" offset="54%"></stop>
            <stop stop-color="#808080" stop-opacity="0.1" offset="100%"></stop>
        </linearGradient>
        <linearGradient x1="59302%" y1="70400%" x2="59302%" y2="54000%" id="linearGradient-13">
            <stop stop-color="#808080" stop-opacity="0.25" offset="0%"></stop>
            <stop stop-color="#808080" stop-opacity="0.12" offset="54%"></stop>
            <stop stop-color="#808080" stop-opacity="0.1" offset="100%"></stop>
        </linearGradient>
    </defs>
    <g id="Page-1" stroke="none" stroke-width="1" fill="none" fill-rule="evenodd">
        <g id="Artboard" transform="translate(-47.000000, -75.000000)">
            <g id="undraw_mission_impossible_bwa2-(1)" transform="translate(47.000000, 75.000000)">
                <rect id="Rectangle-path" fill="url(#linearGradient-1)" fill-rule="nonzero" opacity="0.5" x="106.02" y="0" width="277" height="136"></rect>
                <g id="Group" opacity="0.5" transform="translate(105.000000, 134.000000)" fill="url(#linearGradient-2)" fill-rule="nonzero">
                    <path d="M0.51,3.06 L1.51,141.06 L278.51,138.99 L277.51,0.99 L0.51,3.06 Z M269.25,130.86 L8.66,132.8 L8.55,118.49 L269.14,116.54 L269.25,130.86 Z M269.09,109.4 L8.5,111.35 L8.4,97 L269.02,95.08 L269.09,109.4 Z M268.93,87.94 L8.34,89.89 L8.23,75.58 L268.82,73.63 L268.93,87.94 Z M268.77,66.48 L8.18,68.43 L8.07,54.12 L268.66,52.17 L268.77,66.48 Z M268.61,45 L8.02,47 L7.91,32.69 L268.5,30.74 L268.61,45 Z M268.45,23.54 L7.86,25.49 L7.75,11.18 L268.34,9.23 L268.45,23.54 Z" id="Shape"></path>
                </g>
                <path d="M108.52,136 L109.52,271 L379.52,269 L378.52,134 L108.52,136 Z M370.46,261 L116.46,262.9 L116.36,248.9 L370.36,247 L370.46,261 Z M370.3,240 L116.3,241.9 L116.2,227.9 L370.2,226 L370.3,240 Z M370.14,219 L116.14,220.9 L116.04,206.9 L370.04,205 L370.14,219 Z M369.98,198 L116.02,200 L115.92,186 L369.92,184.1 L369.98,198 Z M369.82,177 L115.82,178.9 L115.72,164.9 L369.72,163 L369.82,177 Z M369.66,156 L115.66,157.9 L115.56,143.9 L369.56,142 L369.66,156 Z" id="Shape" fill="#F5F5F5" fill-rule="nonzero"></path>
                <rect id="c2f262c5-432c-497c-b342-014b49715688" fill="#6C63FF" fill-rule="nonzero" x="110.02" y="3" width="270" height="135"></rect>
                <g id="Clipped" transform="translate(118.000000, 4.000000)">
                    <mask id="mask-4" fill="white">
                        <use xlink:href="#path-3"></use>
                    </mask>
                    <g id="f22ed1c3-f8e5-4d7e-b5e7-db648f32c6c2"></g>
                    <g id="Group" mask="url(#mask-4)">
                        <g transform="translate(-126.000000, 1.000000)">
                            <g id="Group" opacity="0.5" stroke-width="1" fill="none" fill-rule="evenodd">
                                <polygon id="Shape" fill="url(#linearGradient-5)" fill-rule="nonzero" points="23.21 240.99 27.68 237.74 25.26 210.41 20.01 198.99 0 206.71"></polygon>
                                <path d="M327.77,4.29 C315.61,-1.55 306.51,1.19 300.15,6.06 C291.32,12.15 287.29,22.63 287.29,22.63 L285.56,27.3 L277.33,33.3 L274.65,27.58 C274.65,27.58 245.49,-24.22 159.5,76.93 L159.1,76.61 C159.1,76.61 151.77,85.61 145.1,95.61 L144.15,97.05 L143.73,97.7 L143.13,98.64 L142.69,99.34 L142.05,100.34 L141.48,101.28 L140.86,102.28 L140.42,103.04 L139.96,103.83 L139.52,104.61 L139.06,105.46 L138.39,106.73 L138.02,107.44 L137.61,108.26 L137.31,108.89 L136.92,109.71 L136.68,110.26 C136.466667,110.746667 136.263333,111.226667 136.07,111.7 L135.85,112.25 C135.75,112.51 135.66,112.77 135.57,113.02 L135.39,113.55 C135.256667,113.95 135.136667,114.34 135.03,114.72 C134.97,114.92 134.91,115.13 134.87,115.32 C134.528831,116.552551 134.400323,117.834251 134.49,119.11 L20.02,199 L25.89,211.78 C25.89,211.78 108.17,179.26 164.25,143.61 L161.89,193.49 L161.74,196.58 C161.74,196.58 110.52,238.92 97.19,260.58 L74.33,273.78 L98.33,309.18 L103.92,305.12 L107.43,277 L201.43,201.86 C201.43,201.86 219.25,169.3 219.56,142.03 L223.41,156.9 C223.41,156.9 231.6,179.9 237.41,180.84 C243.22,181.78 243.22,162.98 239.16,157.4 C235.1,151.82 237.08,114.58 237.08,114.58 L238.08,107 L252.79,96.31 L253.33,95.79 L254.1,100.47 L257.1,100.73 L257.1,100.94 L257.02,100.94 L257.16,102.3 L259.05,137.82 L269.46,177.99 C269.46,177.99 277.66,200.99 283.46,201.93 C289.26,202.87 289.27,184.07 285.22,178.49 C281.17,172.91 283.14,135.67 283.14,135.67 L287.43,104.67 L287.51,104.07 L287.61,103.38 L296.07,104.11 C296.07,104.11 304.84,73.87 290.13,60.69 L287.45,54.97 L292.93,50.97 L294.03,50.17 C303.72416,59.620245 319.193914,59.5891456 328.85,50.1 C332.965641,50.4817514 337.082449,49.3825175 340.46,47 C341.2,46.48 341.92,46 342.6,45.46 C345.68,43.25 348.23,41.22 348.74,40.24 C350.16,37.46 346.59,13.33 327.77,4.29 Z" id="Shape" fill="url(#linearGradient-6)" fill-rule="nonzero"></path>
                            </g>
                            <path d="M253.72,84.08 L256.61,138.26 L266.71,177.26 C266.71,177.26 274.71,199.62 280.28,200.5 C285.85,201.38 285.92,183.16 281.98,177.74 C278.04,172.32 279.98,136.17 279.98,136.17 L286.35,90.17 L253.72,84.08 Z" id="Shape" fill="#FDA57D" fill-rule="nonzero"></path>
                            <path d="M250.36,93.15 L251.83,102.02 L292.54,105.54 C292.54,105.54 301.05,76.18 286.78,63.38 L250.36,93.15 Z" id="Shape" fill="#FFFFFF" fill-rule="nonzero"></path>
                            <path d="M159.55,78.87 C159.55,78.87 134.55,109.47 135.69,120.21 L24.5,197.71 L30.2,210.12 C30.2,210.12 110.08,178.55 164.54,143.94 L162.11,195.37 C162.11,195.37 112.38,236.48 99.44,257.47 L109.38,273.47 L200.65,200.47 C200.65,200.47 227.72,151 214.74,124 L159.55,78.87 Z" id="Shape" fill="#3AD29F" fill-rule="nonzero"></path>
                            <polygon id="Shape" fill="#000000" fill-rule="nonzero" points="5.08 205.21 24.5 197.71 29.6 208.81 31.95 235.34 27.61 238.49"></polygon>
                            <polygon id="Shape" fill="#000000" fill-rule="nonzero" points="99.44 257.46 77.25 270.28 100.57 304.65 105.99 300.7 109.38 273.41"></polygon>
                            <path d="M286.77,63.37 L271.77,31.26 C271.77,31.26 243.35,-19.26 159.44,79.8 L214.74,124 L250.55,98 L286.77,63.37 Z" id="Shape" fill="#FFFFFF" fill-rule="nonzero"></path>
                            <path d="M275.483632,18.9802238 L298.243632,18.9802238 L298.243632,59.1802238 C298.243632,62.1625615 295.82597,64.5802238 292.843632,64.5802238 L280.843632,64.5802238 C277.861295,64.5802238 275.443632,62.1625615 275.443632,59.1802238 L275.443632,18.9802238 L275.483632,18.9802238 Z" id="Shape" fill="#FDA57D" fill-rule="nonzero" transform="translate(286.843632, 41.780224) rotate(53.990000) translate(-286.843632, -41.780224) "></path>
                            <path d="M283.08,30.46 C280.750437,38.8699417 283.210271,47.8803804 289.49,53.94 L303.31,43.94 L289.92,25.49 L283.08,30.46 Z" id="Shape" fill="#000000" fill-rule="nonzero" opacity="0.05"></path>
                            <ellipse id="Oval" fill="#FDA57D" fill-rule="nonzero" transform="translate(307.461120, 35.911029) rotate(-36.010000) translate(-307.461120, -35.911029) " cx="307.46112" cy="35.9110286" rx="24.15" ry="24.1"></ellipse>
                            <path d="M296.29,21.7 L282.29,31.02 L283.97,26.49 C283.97,26.49 295.44,-3.37 322.19,9.49 C340.47,18.26 343.93,41.69 342.55,44.35 C342,45.35 339.02,47.71 335.55,50.12 C328.438295,55.1667818 318.647532,53.933163 313.01,47.28 C308.32,41.7 300.16,30.16 301.67,23.54 C300.3,21.05 298.51,20.05 296.2,21.72 L296.29,21.7 Z" id="Shape" fill="#000000" fill-rule="nonzero" opacity="0.05"></path>
                            <path d="M297.37,20.91 L283.37,30.23 L285.05,25.7 C285.05,25.7 296.52,-4.16 323.27,8.7 C341.55,17.47 345.01,40.9 343.63,43.56 C343.08,44.56 340.1,46.92 336.63,49.33 C329.518295,54.3767818 319.727532,53.143163 314.09,46.49 C309.4,40.91 301.24,29.37 302.75,22.75 C301.38,20.26 299.59,19.26 297.28,20.93 L297.37,20.91 Z" id="Shape" fill="#5A2F32" fill-rule="nonzero"></path>
                            <ellipse id="Oval" fill="#FDA57D" fill-rule="nonzero" transform="translate(299.088880, 22.135133) rotate(-36.010000) translate(-299.088880, -22.135133) " cx="299.08888" cy="22.1351326" rx="5.37" ry="2.68"></ellipse>
                            <polygon id="Shape" fill="#000000" fill-rule="nonzero" opacity="0.05" points="245.87 97.24 252.26 91.77 252.34 100.41 250.94 97.08"></polygon>
                            <polygon id="Shape" fill="#000000" fill-rule="nonzero" opacity="0.05" points="254.64 102.45 254.78 103.78 284.14 106.07 284.32 104.82"></polygon>
                            <g id="Group" opacity="0.05" stroke-width="1" fill="none" fill-rule="evenodd" transform="translate(30.000000, 97.000000)">
                                <path d="M116.02,0.31 C111.54,7.06 107.39,14.31 106.11,19.53 L109.59,17.1 C109.12,13.27 112.02,6.91 116.02,0.31 Z" id="Shape" fill="#000000" fill-rule="nonzero"></path>
                                <path d="M135.96,92.25 L138.39,40.82 C83.94,75.43 4.02,107 4.02,107 L0.17,113.11 C0.17,113.11 80.05,81.54 134.51,46.93 L132.22,95.36 C134.59,93.38 135.96,92.25 135.96,92.25 Z" id="Shape" fill="#000000" fill-rule="nonzero"></path>
                            </g>
                            <path d="M209.02,63.62 L211.91,117.8 L222.01,156.8 C222.01,156.8 230.01,179.16 235.58,180.04 C241.15,180.92 241.22,162.7 237.28,157.28 C233.34,151.86 235.28,115.71 235.28,115.71 L241.65,69.71 L209.02,63.62 Z" id="Shape" fill="#FDA57D" fill-rule="nonzero"></path>
                            <path d="M212.23,37.26 C212.23,37.26 205.5,55.39 208.36,61.6" id="Shape" fill="#000000" fill-rule="nonzero" opacity="0.05"></path>
                            <polygon id="Shape" fill="#000000" fill-rule="nonzero" opacity="0.05" points="209.15 62.68 209.13 66.05 241.38 71.47 241.77 68.77"></polygon>
                            <polygon id="Shape" fill="#FFFFFF" fill-rule="nonzero" points="216.43 35.04 209 63.62 241.62 69.7 250.24 33.64"></polygon>
                        </g>
                    </g>
                </g>
                <g id="Group" opacity="0.5" transform="translate(207.000000, 137.000000)" fill="url(#linearGradient-7)" fill-rule="nonzero">
                    <path d="M0.31,1 L6.74,25.31 C6.74,25.31 15.02,48.14 20.89,49 C26.76,49.86 26.77,31.29 22.67,25.76 C20.51,22.85 20.04,11.29 20.08,0.96 L0.31,1 Z" id="Shape"></path>
                </g>
                <path d="M207.83,138 L214.02,161.8 C214.02,161.8 222.02,184.16 227.59,185.04 C233.16,185.92 233.23,167.7 229.29,162.28 C227.22,159.43 226.77,148.11 226.81,137.99 L207.83,138 Z" id="Shape" fill="#FDA57D" fill-rule="nonzero"></path>
                <g id="Group" opacity="0.5" transform="translate(247.000000, 137.000000)" fill="url(#linearGradient-8)" fill-rule="nonzero">
                    <path d="M26.14,0 L0.45,0 L0.8,6.44 L11.49,46.58 C11.49,46.58 19.91,69.58 25.86,70.5 C31.81,71.42 31.86,52.65 27.66,47.08 C23.46,41.51 25.52,4.3 25.52,4.3 L26.14,0 Z" id="Shape"></path>
                </g>
                <path d="M272.56,137 L248.28,137 L248.61,143.26 L258.71,182.26 C258.71,182.26 266.71,204.62 272.28,205.5 C277.85,206.38 277.92,188.16 273.98,182.74 C270.04,177.32 271.98,141.17 271.98,141.17 L272.56,137 Z" id="Shape" fill="#FDA57D" fill-rule="nonzero"></path>
                <g id="Group" opacity="0.5" transform="translate(306.000000, 527.000000)" fill="url(#linearGradient-9)" fill-rule="nonzero">
                    <rect id="Rectangle-path" x="0.02" y="0" width="304" height="16"></rect>
                </g>
                <rect id="Rectangle-path" fill="#6C63FF" fill-rule="nonzero" x="311.02" y="527" width="297" height="13"></rect>
                <g id="Group" opacity="0.5" transform="translate(0.000000, 346.000000)" fill="url(#linearGradient-10)" fill-rule="nonzero">
                    <path d="M373.78,142.25 L374.99,142.77 L413.72,159.43 L463.08,100.94 C463.08,100.94 470.55,92.58 461.65,86.86 C452.75,81.14 447.16,95.94 447.16,95.94 L409.16,136.6 L377.02,120.5 L377.52,117.12 L348.18,100.12 C347.612602,99.0527662 346.991816,98.0147849 346.32,97.01 L346.05,96.01 L344.58,94.72 C344.3,94.42 344.02,94.14 343.74,93.89 L348.6,88.62 C355.895459,91.1755613 363.94817,90.3684099 370.591287,86.4157365 C377.234403,82.4630631 381.785516,75.7709022 383.02,68.14 C385.29289,68.5730462 387.62711,68.5730462 389.9,68.14 C395.970638,66.8645009 401.036389,62.7058814 403.47,57 C403.269426,57.3865483 402.899284,57.6567522 402.47,57.73 C402.844966,57.0849749 403.178959,56.4169876 403.47,55.73 C402.47,58.16 393.09,54.81 391.68,54.06 C387.38,51.78 385.17,48.39 382.95,44.25 C378.57,36.05 370.47,33.02 361.37,32.31 C354.37,31.76 347.25,32.24 340.8,34.89 C334.35,37.54 328.66,42.58 326.32,49.16 C325.554092,51.3935333 325.214869,53.7511374 325.32,56.11 C325.022244,61.2329715 327.054536,66.2163134 330.85,69.67 C331.169454,69.9442041 331.503259,70.2012334 331.85,70.44 C332.04,71.2 332.26,71.94 332.52,72.68 L331.18,74 L331.18,74.08 L322.85,83.08 L322.42,82.95 L234.58,96.09 L234.58,96.27 C231.66,94.34 218.43,87.62 185.41,96.75 C172.94,100.2 152.16,99.83 129.86,97.75 C114.17,78.28 104.12,17.9 104.12,17.9 L100.19,0.82 L49.06,12.64 C49.06,12.64 72.66,17.89 76.59,24.46 C82.59,26.46 86.3,71.27 87.73,92.46 C57.12,87.74 32.02,82.32 32.02,82.32 L13.66,75.75 L0.55,121.75 C0.55,121.75 15.02,106 28.1,104.65 C28.1,104.65 93.66,136.18 142.17,129.65 C161.02,127 179.32,135 194.61,137.49 C208.001466,139.721806 221.529488,141.038191 235.1,141.43 L235.26,155.88 C235.26,155.88 289.26,153.55 324.71,142.3 C327.4,149.59 329.56,154.85 330.31,155.22 L336.74,152.07 L372.92,196.6 L443.72,167.7 C443.72,167.7 454.21,163.76 448.96,154.56 C443.71,145.36 431.96,155.87 431.96,155.87 L379.52,174.26 L357.39,143.58 L356.53,142.38 L361.17,140.1 C361.17,140.1 361.02,139.42 360.75,138.24 L372.93,148 L373.78,142.25 Z" id="Shape"></path>
                </g>
                <polygon id="Shape" fill="#FDA57D" fill-rule="nonzero" points="331 450.66 314.79 435.64 341.62 406.55 357.83 421.57"></polygon>
                <path d="M340.34,407.83 L328.5,420.67 C331.084991,427.980952 336.849185,433.723075 344.17,436.28 L356.56,422.85 L340.34,407.83 Z" id="Shape" fill="#000000" fill-rule="nonzero" opacity="0.05"></path>
                <path d="M343.82,475.82 L408.82,503.82 L456.82,446.93 C456.82,446.93 464.09,438.8 455.43,433.24 C446.77,427.68 441.33,442.07 441.33,442.07 L404.41,481.61 L357.02,457.86 L343.82,475.82 Z" id="Shape" fill="#FDA57D" fill-rule="nonzero"></path>
                <polygon id="Shape" fill="#3AD29F" fill-rule="nonzero" points="340.41 443.46 373.57 462.62 369.11 492.65 337.86 467.74"></polygon>
                <ellipse id="Oval" fill="#FDA57D" fill-rule="nonzero" cx="353.8" cy="410.88" rx="25.5" ry="25.55"></ellipse>
                <path d="M332.76,433.24 L320.02,429.4 L234.58,442.18 L235.22,500.32 C235.22,500.32 339.15,495.85 350.63,469.02 L342.98,442.19 L332.76,433.24 Z" id="Shape" fill="#3AD29F" fill-rule="nonzero"></path>
                <polygon id="Shape" fill="#000000" fill-rule="nonzero" opacity="0.05" points="338.85 468.52 369.11 492.65 370.38 482.43 340.41 453.68"></polygon>
                <path d="M235.21,442.82 C235.21,442.82 223.73,432.6 186.75,442.82 C149.77,453.04 37.55,428.77 37.55,428.77 L33.72,450.49 C33.72,450.49 97.48,481.16 144.66,474.77 C163.03,472.28 180.79,480.05 195.66,482.44 C208.732449,484.627701 221.940716,485.907429 235.19,486.27 L235.21,442.82 Z" id="Shape" fill="#4D8AF0" fill-rule="nonzero"></path>
                <path d="M37.55,428.76 L19.7,422.37 L6.94,467.1 C6.94,467.1 20.94,451.77 33.72,450.49 L37.55,428.76 Z" id="Shape" fill="#000000" fill-rule="nonzero"></path>
                <path d="M80.9,372.55 L107.68,366.16 C107.68,366.16 120.43,442.82 139.56,449.21 L92.38,449.21 C92.38,449.21 88.55,375.1 80.9,372.55 Z" id="Shape" fill="#4D8AF0" fill-rule="nonzero"></path>
                <path d="M107.68,366.16 L103.85,349.55 L54.12,361 C54.12,361 77.12,366.11 80.9,372.5 L107.68,366.16 Z" id="Shape" fill="#000000" fill-rule="nonzero"></path>
                <path d="M357.86,381.34 C351.1,380.81 344.13,381.27 337.86,383.85 C331.59,386.43 326.06,391.33 323.77,397.73 C321.48,404.13 322.96,411.99 328.13,416.4 C329.364658,417.54433 330.943502,418.247601 332.62,418.4 C335.33,418.51 337.62,416.52 339.7,414.79 C343.605467,411.562978 347.906898,408.8477 352.5,406.71 C356.41,404.89 361.18,403.55 364.88,405.77 C366.64,406.83 367.88,408.54 369.33,409.99 C373.610343,414.248387 379.732226,416.092049 385.652327,414.90562 C391.572427,413.719191 396.51112,409.658913 398.82,404.08 C397.82,406.45 388.73,403.18 387.36,402.45 C383.18,400.23 381.02,396.94 378.87,392.91 C374.59,385 366.72,382 357.86,381.34 Z" id="Shape" fill="#000000" fill-rule="nonzero" opacity="0.05"></path>
                <path d="M357.86,380.06 C351.1,379.53 344.13,379.99 337.86,382.57 C331.59,385.15 326.02,390 323.77,396.45 C321.52,402.9 322.96,410.71 328.13,415.12 C329.364658,416.26433 330.943502,416.967601 332.62,417.12 C335.33,417.23 337.62,415.24 339.7,413.51 C343.605467,410.282978 347.906898,407.5677 352.5,405.43 C356.41,403.61 361.18,402.27 364.88,404.49 C366.64,405.55 367.88,407.26 369.33,408.71 C373.610343,412.968387 379.732226,414.812049 385.652327,413.62562 C391.572427,412.439191 396.51112,408.378913 398.82,402.8 C397.82,405.17 388.73,401.9 387.36,401.17 C383.18,398.95 381.02,395.66 378.87,391.63 C374.59,383.7 366.72,380.75 357.86,380.06 Z" id="Shape" fill="#000000" fill-rule="nonzero"></path>
                <ellipse id="Oval" fill="#FDA57D" fill-rule="nonzero" transform="translate(345.517494, 408.325654) rotate(-76.650000) translate(-345.517494, -408.325654) " cx="345.517494" cy="408.325654" rx="3.83" ry="1.91"></ellipse>
                <polygon id="Shape" fill="#000000" fill-rule="nonzero" opacity="0.05" points="333.92 496.61 334.77 497.66 353.95 488.36 353.11 487.2"></polygon>
                <polygon id="Shape" fill="#000000" fill-rule="nonzero" opacity="0.05" points="373.08 465.91 369.95 486.9 371.11 487.56 373.57 466.15"></polygon>
                <rect id="Rectangle-path" fill="#E0E0E0" fill-rule="nonzero" x="256.89" y="412.15" width="15.3" height="103.49"></rect>
                <rect id="Rectangle-path" fill="#E0E0E0" fill-rule="nonzero" transform="translate(219.539850, 173.887449) rotate(18.570000) translate(-219.539850, -173.887449) " x="211.88985" y="122.142449" width="15.3" height="103.49"></rect>
                <polygon id="Shape" fill="#E0E0E0" fill-rule="nonzero" points="267.09 423.65 261.99 423.65 261.99 173.73 267.02 174"></polygon>
                <path d="M324.47,485 L369.1,539.94 L437.96,511.83 C437.96,511.83 448.17,508 443.02,499 C437.87,490 426.44,500.28 426.44,500.28 L375.44,518.17 L344.44,475.17 L324.47,485 Z" id="Shape" fill="#FDA57D" fill-rule="nonzero"></path>
                <path d="M306.02,439.63 C306.02,439.63 325.15,498.4 327.7,499.68 L357.7,484.99 C357.7,484.99 349.2,445.35 339.7,439.3 C330.2,433.25 307.26,434.51 306.02,439.63 Z" id="Shape" fill="#3AD29F" fill-rule="nonzero"></path>
                <path d="M311.44,456.12 C311.44,456.12 310.44,478.6 316.82,482.43" id="Shape" fill="#000000" fill-rule="nonzero" opacity="0.05"></path>
                <g id="Group" opacity="0.5" transform="translate(399.000000, 408.000000)" fill="url(#linearGradient-11)" fill-rule="nonzero">
                    <polygon id="Shape" points="143.06 0 133.77 9.09 110.07 108.24 109.74 108.19 35 106.32 0.5 119.96 0.5 125 106.33 123.88 113.61 123.88 118.14 122.9 147.54 1.68"></polygon>
                </g>
                <polygon id="Shape" fill="#F5F5F5" fill-rule="nonzero" points="538.75 411 529.9 419.65 535.77 421.78 543.01 412.6"></polygon>
                <polygon id="Shape" fill="#F5F5F5" fill-rule="nonzero" points="529.9 419.65 535.77 421.78 510.71 528.93 503.78 528.93"></polygon>
                <polygon id="Shape" fill="#E0E0E0" fill-rule="nonzero" points="510.71 528.93 515.02 528 543.01 412.6 535.77 421.78"></polygon>
                <polygon id="Shape" fill="#E0E0E0" fill-rule="nonzero" points="403.03 525.2 403.03 530 503.78 528.93 505.42 523.76"></polygon>
                <polyline id="Shape" fill="#F5F5F5" fill-rule="nonzero" points="507.58 514.08 507.02 514 435.88 512.22 403.03 525.2 505.38 524.14"></polyline>
                <polygon id="Shape" fill="#E0E0E0" fill-rule="nonzero" points="466.02 521 468.02 515 507.02 515 505.02 522"></polygon>
                <polygon id="Shape" fill="#6C63FF" fill-rule="nonzero" points="433.02 520 447.02 515 457.02 515 452.02 520"></polygon>
                <g id="Group" opacity="0.5" transform="translate(326.000000, 540.000000)" fill="url(#linearGradient-12)" fill-rule="nonzero">
                    <rect id="Rectangle-path" x="0.02" y="0" width="18" height="164"></rect>
                </g>
                <g id="Group" opacity="0.5" transform="translate(576.000000, 540.000000)" fill="url(#linearGradient-13)" fill-rule="nonzero">
                    <rect id="Rectangle-path" x="0.02" y="0" width="18" height="164"></rect>
                </g>
                <rect id="Rectangle-path" fill="#6C63FF" fill-rule="nonzero" x="328.02" y="540" width="15" height="161"></rect>
                <rect id="Rectangle-path" fill="#6C63FF" fill-rule="nonzero" x="578.02" y="540" width="15" height="161"></rect>
                <polygon id="Shape" fill="#E0E0E0" fill-rule="nonzero" points="262.02 174 239 139.99 241.42 132.8 267.02 174"></polygon>
                <rect id="Rectangle-path" fill="#000000" fill-rule="nonzero" transform="translate(374.490163, 423.306902) rotate(33.600000) translate(-374.490163, -423.306902) " x="372.490163" y="418.266902" width="4" height="10.08"></rect>
                <rect id="Rectangle-path" fill="#000000" fill-rule="nonzero" transform="translate(361.451578, 412.416438) rotate(33.620000) translate(-361.451578, -412.416438) " x="346.646578" y="411.416438" width="29.61" height="2"></rect>
            </g>
        </g>
    </g>
</svg>