<?xml version="1.0" encoding="UTF-8"?>
<svg width="35px" height="43px" viewBox="0 0 35 43" version="1.1" xmlns="http://www.w3.org/2000/svg" xmlns:xlink="http://www.w3.org/1999/xlink">
    <!-- Generator: Sketch 49.3 (51167) - http://www.bohemiancoding.com/sketch -->
    <title>S</title>
    <desc>Created with Sketch.</desc>
    <defs></defs>
    <g id="Page-1" stroke="none" stroke-width="1" fill="none" fill-rule="evenodd">
        <g id="Artboard" transform="translate(-76.000000, -19.000000)" fill="#353B48">
            <path d="M80.4791667,53.9375 L97.5,53.9375 L97.5,49.4583333 L80.4791667,49.4583333 L80.4791667,53.9375 Z M80.4791667,36.9166667 L84.9583333,36.9166667 L84.9583333,27.9583333 L80.4791667,27.9583333 L80.4791667,36.9166667 Z M84.9583333,40.5 L97.5,40.5 L97.5,36.0208333 L84.9583333,36.0208333 L84.9583333,40.5 Z M97.5,49.4583333 L101.979167,49.4583333 L101.979167,40.5 L97.5,40.5 L97.5,49.4583333 Z M84.9583333,27.9583333 L101.979167,27.9583333 L101.979167,23.4791667 L84.9583333,23.4791667 L84.9583333,27.9583333 Z M110.041667,40.5 L110.041667,57.7 L105.786458,57.7 L105.786458,62 L80.2552083,62 L80.2552083,57.7 L76,57.7 L76,49.1 L80.2552083,49.1 L80.2552083,40.5 L76,40.5 L76,27.6 L80.2552083,27.6 L80.2552083,23.3 L84.5104167,23.3 L84.5104167,19 L105.786458,19 L105.786458,23.3 L110.041667,23.3 L110.041667,36.2 L105.786458,36.2 L105.786458,40.5 L110.041667,40.5 Z" id="S"></path>
        </g>
    </g>
</svg>