<?xml version="1.0" encoding="UTF-8"?>
<svg width="935px" height="465px" viewBox="0 0 935 465" version="1.1" xmlns="http://www.w3.org/2000/svg" xmlns:xlink="http://www.w3.org/1999/xlink">
    <!-- Generator: Sketch 49.3 (51167) - http://www.bohemiancoding.com/sketch -->
    <title>Shape</title>
    <desc>Created with Sketch.</desc>
    <defs></defs>
    <g id="Page-1" stroke="none" stroke-width="1" fill="none" fill-rule="evenodd" opacity="0.0915987319">
        <path d="M57.1265724,273.602559 C87.6826485,312.455445 75.8136007,369.217534 56.3967604,414.667536 C49.895672,429.887957 42.5399352,445.991835 45.286333,462.306975 C48.6377066,482.261571 66.4124699,496.877017 85.1571149,504.559248 C119.247018,518.656143 160.058873,515.295167 191.373569,495.811107 C218.443833,478.967814 237.831865,451.580659 265.363062,435.505589 C311.456451,408.617779 370.091084,418.767927 420.121617,437.291708 C455.517499,450.399516 494.216741,467.45407 529.391758,453.750889 C554.138147,444.1481 571.250318,420.650074 580.574626,395.778849 C585.078335,383.76576 588.343283,370.811597 596.899368,361.208807 C602.008052,355.552764 608.672388,351.529195 615.509574,348.149013 C677.927706,317.218429 756.67058,333.744829 817.244975,299.482076 C858.162461,276.320148 884.358871,232.617853 895.987849,187.052617 C907.616827,141.487381 906.234025,93.703901 903.285969,46.7846717 C901.192561,13.4341838 897.43787,-22.1633567 876.12928,-47.9084353 C853.591534,-75.1323434 814.901895,-85.2632863 779.938138,-80.0873828 C744.974382,-74.9114793 713.265971,-56.3780956 685.417882,-34.6565858 C650.569359,-7.50949999 618.255972,26.3019217 575.465942,37.3067185 C546.331079,44.7968942 515.678975,40.6965031 485.622244,39.2848931 C435.38045,36.9130041 385.129052,42.1657299 335.165739,47.9274036 C287.334244,53.4586103 239.137844,59.5467789 193.591814,75.1032978 C161.345647,86.1176973 135.494937,106.101102 105.044492,120.063558 C85.1955261,129.167002 63.5508386,131.682933 44.7677824,143.2735 C21.615457,157.552848 0.402895068,182.395265 6.35662454,211.453305 C11.945448,239.118942 40.8978582,252.98537 57.1265724,273.602559 Z" id="Shape" fill="#046FDB" fill-rule="nonzero" transform="translate(455.341997, 215.897449) rotate(13.000000) translate(-455.341997, -215.897449) "></path>
    </g>
</svg>